<?xml version="1.0"?>
<!-- Converted with SVG Converter - Version 0.9.5 (Compiled Mon May 30 09:08:51 2011) - Copyright (C) 2011 Nokia -->
<svg xmlns="http://www.w3.org/2000/svg" width="96" version="1.1" height="96" viewBox="0 0 96 96" xmlns:xlink="http://www.w3.org/1999/xlink" baseProfile="tiny" id="Слой_1" xml:space="preserve">
 <metadata id="metadata11401"/>
 <defs id="defs11399">
  <linearGradient gradientTransform="matrix(1,0,0,-1,-1301.498,-1816.002)" id="SVGID_1_" y1="-1896.0762" x1="1349.5225" y2="-1827.7217" x2="1349.5225" gradientUnits="userSpaceOnUse">
   <stop offset="0" style="stop-color:#0c4983;stop-opacity:1" id="stop11309"/>
   <stop offset="1" style="stop-color:#2b99e3;stop-opacity:1" id="stop11311"/>
  </linearGradient>
  <linearGradient gradientTransform="matrix(1,0,0,-1,-1301.498,-1816.002)" id="SVGID_2_" y1="-1903.751" x1="1349.4756" y2="-1824.5059" x2="1349.4756" gradientUnits="userSpaceOnUse">
   <stop offset="0" style="stop-color:#000000;stop-opacity:1" id="stop11316"/>
   <stop offset="1" style="stop-color:#ffffff;stop-opacity:1" id="stop11318"/>
  </linearGradient>
  <linearGradient gradientTransform="matrix(0.9999,-0.0103,-0.0103,-0.9952,-739.3976,-1058.6475)" id="SVGID_3_" y1="-1127.8799" x1="778.43359" y2="-1112.4144" x2="778.59222" gradientUnits="userSpaceOnUse">
   <stop offset="0" style="stop-color:#ffffff;stop-opacity:1" id="stop11323"/>
   <stop offset="1" style="stop-color:#ffffff;stop-opacity:1" id="stop11325"/>
  </linearGradient>
  <linearGradient gradientTransform="matrix(0.829,-0.5593,-0.5593,-0.829,-736.2568,-1021.828)" id="SVGID_4_" y1="-1325.1675" x1="65.658203" y2="-1308.83" x2="76.680397" gradientUnits="userSpaceOnUse">
   <stop offset="0" style="stop-color:#ffffff;stop-opacity:1" id="stop11332"/>
   <stop offset="1" style="stop-color:#ffffff;stop-opacity:1" id="stop11334"/>
  </linearGradient>
  <linearGradient gradientTransform="matrix(0.829,-0.5593,-0.5593,-0.829,-736.2568,-1021.828)" id="SVGID_5_" y1="-1337.3267" x1="78.452103" y2="-1323.3911" x2="87.853996" gradientUnits="userSpaceOnUse">
   <stop offset="0" style="stop-color:#ffffff;stop-opacity:1" id="stop11341"/>
   <stop offset="1" style="stop-color:#ffffff;stop-opacity:1" id="stop11343"/>
  </linearGradient>
  <linearGradient gradientTransform="matrix(0.829,-0.5593,-0.5593,-0.829,-736.2568,-1021.828)" id="SVGID_6_" y1="-1349.7891" x1="59.402302" y2="-1332.03" x2="71.383797" gradientUnits="userSpaceOnUse">
   <stop offset="0" style="stop-color:#ffffff;stop-opacity:1" id="stop11350"/>
   <stop offset="1" style="stop-color:#ffffff;stop-opacity:1" id="stop11352"/>
  </linearGradient>
  <linearGradient gradientTransform="matrix(1,0,0,-1,-249.5996,-275.9004)" id="SVGID_7_" y1="-340.18161" x1="277.7598" y2="-295.77731" x2="277.7598" gradientUnits="userSpaceOnUse">
   <stop offset="0" style="stop-color:#ffffff;stop-opacity:1" id="stop11359"/>
   <stop offset="1" style="stop-color:#ffffff;stop-opacity:1" id="stop11361"/>
  </linearGradient>
  <linearGradient gradientTransform="matrix(1,0,0,-1,-741.7988,-1067.7012)" id="SVGID_8_" y1="-1127.8174" x1="769.96088" y2="-1090.8809" x2="769.96088" gradientUnits="userSpaceOnUse">
   <stop offset="0" style="stop-color:#ffffff;stop-opacity:1" id="stop11368"/>
   <stop offset="1" style="stop-color:#ffffff;stop-opacity:1" id="stop11370"/>
  </linearGradient>
  <linearGradient gradientTransform="matrix(1,0,0,-1,-741.7988,-1067.7012)" id="SVGID_9_" y1="-1127.0566" x1="769.96002" y2="-1091.2964" x2="769.96002" gradientUnits="userSpaceOnUse">
   <stop offset="0" style="stop-color:#000000;stop-opacity:1" id="stop11375"/>
   <stop offset="1" style="stop-color:#000000;stop-opacity:1" id="stop11377"/>
  </linearGradient>
  <linearGradient gradientTransform="matrix(1,0,0,-1,-1301.498,-1816.002)" id="linearGradient11463" y1="-1903.751" x1="1349.4756" y2="-1824.5059" x2="1349.4756" gradientUnits="userSpaceOnUse">
   <stop offset="0" style="stop-color:#000000;stop-opacity:1" id="stop11316"/>
   <stop offset="1" style="stop-color:#ffffff;stop-opacity:1" id="stop11318"/>
  </linearGradient>
  <linearGradient gradientTransform="matrix(1,0,0,-1,-1301.498,-1816.002)" id="linearGradient11466" y1="-1896.0762" x1="1349.5225" y2="-1827.7217" x2="1349.5225" gradientUnits="userSpaceOnUse">
   <stop offset="0" style="stop-color:#0c4983;stop-opacity:1" id="stop11309"/>
   <stop offset="1" style="stop-color:#2b99e3;stop-opacity:1" id="stop11311"/>
  </linearGradient>
  <linearGradient id="BLUE_4_3_" y1="8.0107002" x1="47.9995" y2="87.9897" x2="47.9995" gradientUnits="userSpaceOnUse">
   <stop offset="0.0364" style="stop-color:#4791d9;stop-opacity:1" id="stop4267"/>
   <stop offset="0.24959999" style="stop-color:#4288cf;stop-opacity:1" id="stop4269"/>
   <stop offset="0.61019999" style="stop-color:#366eb5;stop-opacity:1" id="stop4271"/>
   <stop offset="1" style="stop-color:#264c91;stop-opacity:1" id="stop4273"/>
  </linearGradient>
  <linearGradient id="HIGHLIGHT_BLU4_1_" y1="8.2559004" x1="47.9995" y2="87.504303" x2="47.9995" gradientUnits="userSpaceOnUse">
   <stop offset="0.0364" style="stop-color:#ffffff;stop-opacity:1" id="stop4277"/>
   <stop offset="0.12899999" style="stop-color:#f5f7fa;stop-opacity:1" id="stop4279"/>
   <stop offset="0.28580001" style="stop-color:#dbe1ed;stop-opacity:1" id="stop4281"/>
   <stop offset="0.4876" style="stop-color:#afbdd7;stop-opacity:1" id="stop4283"/>
   <stop offset="0.72649997" style="stop-color:#738cb8;stop-opacity:1" id="stop4285"/>
   <stop offset="0.99419999" style="stop-color:#284d92;stop-opacity:1" id="stop4287"/>
   <stop offset="1" style="stop-color:#264c91;stop-opacity:1" id="stop4289"/>
  </linearGradient>
  <linearGradient gradientTransform="matrix(1,0,0,-1,-1301.498,-1816.002)" id="linearGradient11995" y1="-1896.0762" x1="1349.5225" y2="-1827.7217" x2="1349.5225" gradientUnits="userSpaceOnUse">
   <stop offset="0" style="stop-color:#0c4983;stop-opacity:1" id="stop11309"/>
   <stop offset="1" style="stop-color:#2b99e3;stop-opacity:1" id="stop11311"/>
  </linearGradient>
  <linearGradient gradientTransform="matrix(1,0,0,-1,-1301.498,-1816.002)" id="linearGradient11997" y1="-1903.751" x1="1349.4756" y2="-1824.5059" x2="1349.4756" gradientUnits="userSpaceOnUse">
   <stop offset="0" style="stop-color:#000000;stop-opacity:1" id="stop11316"/>
   <stop offset="1" style="stop-color:#ffffff;stop-opacity:1" id="stop11318"/>
  </linearGradient>
  <linearGradient gradientTransform="matrix(1,0,0,-1,-1301.498,-1816.002)" id="linearGradient12481" y1="-1903.751" x1="1349.4756" y2="-1824.5059" x2="1349.4756" gradientUnits="userSpaceOnUse">
   <stop offset="0" style="stop-color:#000000;stop-opacity:1" id="stop11316"/>
   <stop offset="1" style="stop-color:#ffffff;stop-opacity:1" id="stop11318"/>
  </linearGradient>
  <linearGradient gradientTransform="matrix(1,0,0,-1,-1301.498,-1816.002)" id="linearGradient12484" y1="-1896.0762" x1="1349.5225" y2="-1827.7217" x2="1349.5225" gradientUnits="userSpaceOnUse">
   <stop offset="0" style="stop-color:#0c4983;stop-opacity:1" id="stop11309"/>
   <stop offset="1" style="stop-color:#2b99e3;stop-opacity:1" id="stop11311"/>
  </linearGradient>
  <linearGradient gradientTransform="matrix(1,0,0,-1,-1301.498,-1816.002)" id="linearGradient3156" y1="-1903.751" x1="1349.4756" y2="-1824.5059" gradientUnits="userSpaceOnUse" x2="1349.4756">
   <stop offset="0" style="stop-color:#000000;stop-opacity:1" id="stop11316"/>
   <stop offset="1" style="stop-color:#ffffff;stop-opacity:1" id="stop11318"/>
  </linearGradient>
  <linearGradient gradientTransform="matrix(1,0,0,-1,-1301.498,-1816.002)" id="linearGradient3159" y1="-1896.0762" x1="1349.5225" y2="-1827.7217" gradientUnits="userSpaceOnUse" x2="1349.5225">
   <stop offset="0" style="stop-color:#0c4983;stop-opacity:1" id="stop11309"/>
   <stop offset="1" style="stop-color:#2b99e3;stop-opacity:1" id="stop11311"/>
  </linearGradient>
 </defs>
 <rect width="96" x="0" y="0" height="96" style="fill:none" id="rect11304"/>
 <g id="g3225">
  <path style="fill:url(#linearGradient3159)" id="path11313" d="M 88,48 C 88,77.635 77.644,88 48.023,88 18.406,88 8.047,77.633 8.047,48 8.047,18.366 18.409,8 48.023,8 77.644,8 88,18.366 88,48 z"/>
  <path style="opacity:0.4;fill:url(#linearGradient3156)" id="path11320" d="M 47.976,8 C 18.358,8 8,18.366 8,48 8,77.635 18.359,88 47.976,88 77.596,88 87.953,77.633 87.953,48 87.952,18.366 77.596,8 47.976,8 z m 0,78.999 c -29.142,0 -38.975,-9.843 -38.975,-39 0,-29.16 9.836,-39 38.975,-39 29.143,0 38.979,9.841 38.979,39 -0.001,29.16 -9.839,39 -38.979,39 z"/>
  <g style="font-size:17.20854187px;font-style:normal;font-variant:normal;font-weight:bold;font-stretch:normal;text-align:start;line-height:125%;letter-spacing:0px;word-spacing:0px;writing-mode:lr-tb;text-anchor:start;fill:#c8c8c8;fill-opacity:1;stroke:none;font-family:Nokia Standard Multiscript;-inkscape-font-specification:Nokia Standard Multiscript Bold" id="text10509" transform="scale(0.8803581,1.1359014)">
   <path style="" id="path3162" d="m 19.295131,48.23616 -3.218199,0 -2.201484,-5.218019 -0.882273,0 0,5.218019 -2.840082,0 0,-12.528289 4.28533,0 c 0.778636,1.3e-5 1.393426,0.05183 1.844373,0.155449 0.450932,0.103644 0.850055,0.277298 1.197371,0.520961 0.347299,0.243687 0.630187,0.592395 0.848664,1.046125 0.218458,0.453751 0.327692,1.055937 0.327702,1.806561 -10e-6,1.658122 -0.694625,2.770066 -2.083847,3.335835 z m -5.335656,-6.814515 c 0.666601,7e-6 1.139947,-0.162444 1.42004,-0.487351 0.280081,-0.324894 0.420124,-0.879465 0.420131,-1.663717 -7e-6,-0.470536 -0.06723,-0.852855 -0.201663,-1.146956 -0.134448,-0.294081 -0.317905,-0.499944 -0.550371,-0.617592 -0.232478,-0.117625 -0.550376,-0.176443 -0.953696,-0.176454 l -1.100741,0 0,4.09207 z"/>
   <path style="" id="path3164" d="m 26.529776,48.23616 -0.378117,-1.411638 c -0.380925,0.526564 -0.808057,0.915885 -1.281398,1.167963 -0.473352,0.252078 -1.051731,0.378117 -1.735138,0.378117 -0.969104,0 -1.721137,-0.256279 -2.256101,-0.768839 -0.534967,-0.512558 -0.80245,-1.23098 -0.802449,-2.155269 -1e-6,-1.120344 0.38932,-1.933995 1.167963,-2.440957 0.778639,-0.506952 2.17347,-0.766032 4.184499,-0.777242 l 0,-0.61339 c -6e-6,-0.453734 -0.05322,-0.79544 -0.15965,-1.025118 -0.106439,-0.229664 -0.288495,-0.418722 -0.54617,-0.567176 -0.257684,-0.148438 -0.644204,-0.222661 -1.159559,-0.222669 -0.666611,8e-6 -1.532079,0.162458 -2.596406,0.487351 l 0,-1.621704 c 1.237981,-0.296882 2.36393,-0.445328 3.377848,-0.445338 1.265987,1e-5 2.223883,0.277296 2.873692,0.831858 0.649793,0.554581 0.974694,1.372434 0.974703,2.453562 l 0,6.730489 z m -1.554482,-4.629837 c -0.834664,5e-6 -1.40464,0.166656 -1.709931,0.499955 -0.305298,0.333308 -0.457946,0.763241 -0.457942,1.289801 -4e-6,0.92989 0.378113,1.394834 1.134352,1.394833 0.481745,1e-6 0.850058,-0.156847 1.104943,-0.470546 0.254873,-0.313696 0.382313,-0.770237 0.382319,-1.369626 l 0,-1.344417 z"/>
   <path style="" id="path3166" d="m 32.520837,39.825149 c 0.72262,-1.069922 1.744936,-1.604888 3.066952,-1.604898 1.047517,1e-5 1.841563,0.278696 2.382139,0.83606 0.540559,0.557381 0.810842,1.357029 0.810852,2.398944 l 0,6.780905 -2.764458,0 0,-6.554034 c -7e-6,-0.70021 -0.09804,-1.188962 -0.294092,-1.466255 -0.196067,-0.277278 -0.495759,-0.415921 -0.899079,-0.415929 -0.53217,8e-6 -0.934094,0.215675 -1.205774,0.647 -0.271688,0.431342 -0.40753,1.047532 -0.407527,1.848574 l 0,5.940644 -2.77286,0 0,-9.881467 1.672119,0 z"/>
   <path style="" id="path3168" d="m 47.233802,46.908548 c -0.661012,0.974703 -1.5937,1.462054 -2.798068,1.462054 -2.526387,0 -3.789577,-1.708529 -3.789577,-5.125591 0,-1.551675 0.329101,-2.777054 0.987307,-3.676141 0.658202,-0.89907 1.620299,-1.348609 2.886296,-1.348619 0.834653,1e-5 1.504061,0.218478 2.008223,0.655404 l 0,-3.940824 2.772861,0 0,13.301329 -1.663717,0 z m -2.201483,-7.108606 c -0.520966,8e-6 -0.908886,0.26609 -1.163761,0.798247 -0.254883,0.532173 -0.382323,1.436853 -0.382319,2.714043 -4e-6,2.319122 0.526559,3.478681 1.57969,3.47868 0.408922,1e-6 0.72822,-0.119036 0.957898,-0.357111 0.229665,-0.238072 0.37531,-0.592382 0.436935,-1.06293 0.06161,-0.470543 0.09242,-1.212773 0.09243,-2.226691 -7e-6,-1.361216 -0.130247,-2.258894 -0.390721,-2.693036 -0.260487,-0.434127 -0.637204,-0.651194 -1.130151,-0.651202 z"/>
   <path style="" id="path3170" d="m 55.712035,48.370602 c -1.484465,0 -2.607612,-0.443937 -3.369446,-1.331813 -0.761838,-0.887874 -1.142756,-2.186076 -1.142755,-3.894609 -1e-6,-1.523667 0.403324,-2.725239 1.209976,-3.604719 0.806647,-0.879464 1.918591,-1.3192 3.335835,-1.31921 1.445242,1e-5 2.554385,0.438346 3.327433,1.315008 0.773031,0.87668 1.15955,2.102059 1.15956,3.676141 -1e-5,1.646915 -0.38933,2.918509 -1.167963,3.814785 -0.778649,0.896278 -1.896195,1.344417 -3.35264,1.344417 z m 0,-8.57066 c -0.543374,8e-6 -0.955101,0.238082 -1.235184,0.714221 -0.280091,0.476155 -0.420134,1.336021 -0.42013,2.579601 -4e-6,1.422845 0.14284,2.394746 0.428533,2.915705 0.285684,0.520963 0.694611,0.781444 1.226781,0.781443 0.537761,1e-6 0.949488,-0.245075 1.235183,-0.735229 0.285682,-0.490149 0.428526,-1.477455 0.428533,-2.961919 -7e-6,-2.195874 -0.554578,-3.293814 -1.663716,-3.293822 z"/>
   <path style="" id="path3172" d="m 64.215474,39.841955 c 0.733824,-1.081127 1.730932,-1.621694 2.991328,-1.621704 1.299596,1e-5 2.190272,0.431344 2.67203,1.294002 0.694606,-0.862658 1.624494,-1.293992 2.789666,-1.294002 2.083833,1e-5 3.125755,1.078344 3.12577,3.235004 l 0,6.780905 -2.764458,0 0,-6.663268 c -1.2e-5,-0.689007 -0.09524,-1.156751 -0.285689,-1.403236 -0.19047,-0.246468 -0.476159,-0.369706 -0.857066,-0.369714 -0.504167,8e-6 -0.885084,0.217075 -1.142754,0.651202 -0.25769,0.434142 -0.38653,1.048932 -0.38652,1.844372 l 0,5.940644 -2.789666,0 0,-6.663268 c -7e-6,-0.660998 -0.09524,-1.121741 -0.285689,-1.382229 -0.190465,-0.260473 -0.478955,-0.390713 -0.865469,-0.390721 -0.498559,8e-6 -0.875276,0.214274 -1.130151,0.642799 -0.254883,0.42854 -0.382322,1.046132 -0.382318,1.852775 l 0,5.940644 -2.772861,0 0,-9.881467 1.672119,0 z"/>
   <path style="" id="path3174" d="m 79.701483,37.329575 c -0.453744,1.1e-5 -0.819257,-0.113425 -1.096541,-0.340306 -0.277287,-0.226859 -0.41593,-0.539156 -0.415929,-0.936891 -10e-7,-0.397711 0.135841,-0.710007 0.407527,-0.936891 0.271682,-0.226857 0.639996,-0.340292 1.104943,-0.340305 0.436932,1.3e-5 0.798244,0.116249 1.083936,0.348708 0.285685,0.232485 0.428529,0.541981 0.428533,0.928488 -4e-6,0.397735 -0.138647,0.710032 -0.415929,0.936891 -0.27729,0.226881 -0.642803,0.340317 -1.09654,0.340306 z m 1.394833,10.906585 -2.789666,0 0,-8.293374 -1.050326,0 0,-1.588093 3.839992,0 z"/>
   <path style="" id="path3176" d="m 90.271965,48.23616 -7.57075,0 0,-1.495664 4.218109,-6.730489 -3.957628,0 0,-1.655314 7.175827,0 0,1.487262 -4.218109,6.738891 4.352551,0 z"/>
   <path style="" id="path3178" d="m 99.296361,47.925264 c -0.963507,0.296892 -2.002628,0.445338 -3.117368,0.445338 -3.164985,0 -4.747474,-1.697325 -4.747473,-5.091981 -1e-6,-1.506861 0.39212,-2.726638 1.176365,-3.659336 0.78424,-0.93268 1.859773,-1.399024 3.226601,-1.399034 1.282792,1e-5 2.251892,0.407536 2.907303,1.22258 0.655395,0.815061 0.983096,2.295319 0.983105,4.440778 l -5.419682,0 c -4e-6,1.938204 0.798243,2.907304 2.394743,2.907303 0.700211,1e-6 1.565678,-0.142843 2.596406,-0.428533 z m -2.302315,-5.419683 c -6e-6,-1.075527 -0.107839,-1.803752 -0.3235,-2.184678 -0.215673,-0.38091 -0.527969,-0.571369 -0.936891,-0.571377 -0.464949,8e-6 -0.815057,0.205872 -1.050326,0.617592 -0.235277,0.411735 -0.366918,1.124555 -0.394923,2.138463 z"/>
  </g>
  <g style="font-size:14px;font-style:normal;font-variant:normal;font-weight:bold;font-stretch:normal;text-align:start;line-height:125%;letter-spacing:0px;word-spacing:0px;writing-mode:lr-tb;text-anchor:start;fill:#343434;fill-opacity:1;stroke:none;font-family:Nokia Standard Multiscript;-inkscape-font-specification:Nokia Standard Multiscript Bold" id="text10517">
   <path style="" id="path3223" d="m 38.731985,21.347212 -6.439453,0 0,-1.203125 2.15332,0 0,-7.334961 -2.15332,0.458008 0,-1.203125 3.185547,-0.991211 1.223633,0 0,9.071289 2.030273,0 z"/>
  </g>
  <g style="font-size:14px;font-style:normal;font-variant:normal;font-weight:bold;font-stretch:normal;text-align:start;line-height:125%;letter-spacing:0px;word-spacing:0px;writing-mode:lr-tb;text-anchor:start;fill:#343434;fill-opacity:1;stroke:none;font-family:Nokia Standard Multiscript;-inkscape-font-specification:Nokia Standard Multiscript Bold" id="text10521">
   <path style="" id="path3218" d="m 59.032078,13.996292 c -0.478522,-0.09569 -0.936529,-0.143546 -1.374024,-0.143555 -1.33529,9e-6 -2.096357,0.90691 -2.283203,2.720704 0.428382,-0.382806 1.041337,-0.574212 1.838867,-0.574219 0.893224,7e-6 1.57112,0.281419 2.033692,0.844238 0.462558,0.562831 0.69384,1.372889 0.693847,2.430176 -7e-6,1.143882 -0.299649,2.03825 -0.898925,2.683105 -0.59929,0.644857 -1.461757,0.967285 -2.587403,0.967285 -1.130211,0 -1.980145,-0.374836 -2.549804,-1.124511 -0.569663,-0.749673 -0.854493,-1.992673 -0.854493,-3.729004 0,-1.72265 0.375976,-3.079582 1.12793,-4.070801 0.751951,-0.991201 1.838864,-1.486806 3.260742,-1.486816 0.528641,1e-5 1.059564,0.03647 1.592774,0.109375 z m -2.495117,3.31543 c -0.387374,5e-6 -0.682458,0.158371 -0.885254,0.475097 -0.202803,0.316737 -0.304203,0.755376 -0.3042,1.315918 -3e-6,0.970706 0.09342,1.633792 0.280274,1.989258 0.186845,0.35547 0.467119,0.533205 0.84082,0.533203 0.391923,2e-6 0.685868,-0.153807 0.881836,-0.461425 0.195958,-0.307616 0.29394,-0.923989 0.293945,-1.849122 -5e-6,-0.71549 -0.09115,-1.228185 -0.273437,-1.538085 -0.182297,-0.309891 -0.460291,-0.464839 -0.833984,-0.464844 z"/>
   <path style="" id="path3220" d="m 63.974461,16.279495 c 0.09114,-0.02278 0.29622,-0.03417 0.615234,-0.03418 1.020828,6e-6 1.803542,0.27914 2.348145,0.837402 0.544589,0.558273 0.816887,1.354659 0.816894,2.38916 -7e-6,1.175783 -0.308763,2.045086 -0.926269,2.60791 -0.617519,0.562826 -1.568853,0.844238 -2.854004,0.844238 -0.852217,0 -1.649742,-0.09342 -2.392579,-0.280273 l 0,-1.367187 c 0.811197,0.205079 1.472003,0.307618 1.982422,0.307617 0.656247,1e-6 1.135901,-0.164061 1.438965,-0.492188 0.303055,-0.328123 0.454585,-0.845375 0.45459,-1.551758 -5e-6,-1.271479 -0.708663,-1.907221 -2.125977,-1.907226 -0.401044,5e-6 -0.87728,0.02279 -1.42871,0.06836 l 0,-5.079101 5.46875,0 0,1.346679 -3.397461,0 z"/>
  </g>
  <g style="font-size:14px;font-style:normal;font-variant:normal;font-weight:bold;font-stretch:normal;text-align:start;line-height:125%;letter-spacing:0px;word-spacing:0px;writing-mode:lr-tb;text-anchor:start;fill:#343434;fill-opacity:1;stroke:none;font-family:Nokia Standard Multiscript;-inkscape-font-specification:Nokia Standard Multiscript Bold" id="text10525">
   <path style="" id="path3213" d="m 21.974329,33.774811 -6.439453,0 0,-1.203125 2.15332,0 0,-7.334961 -2.15332,0.458008 0,-1.203125 3.185547,-0.991211 1.223633,0 0,9.071289 2.030273,0 z"/>
   <path style="" id="path3215" d="m 29.979212,24.68985 c -1.736334,2.912115 -2.636398,5.940433 -2.700196,9.084961 l -2.399414,0 c 0.100259,-3.030596 1.007159,-5.965489 2.720704,-8.804688 l -4.074219,0 0,-1.387695 6.453125,0 z"/>
  </g>
  <g style="font-size:14px;font-style:normal;font-variant:normal;font-weight:bold;font-stretch:normal;text-align:start;line-height:125%;letter-spacing:0px;word-spacing:0px;writing-mode:lr-tb;text-anchor:start;fill:#343434;fill-opacity:1;stroke:none;font-family:Nokia Standard Multiscript;-inkscape-font-specification:Nokia Standard Multiscript Bold" id="text10529">
   <path style="line-height:125%;fill:#343434;font-family:Nokia Standard Multiscript;-inkscape-font-specification:Nokia Standard Multiscript Bold" id="path3208" d="m 45.871574,28.456451 c 0.569655,0.168625 1.003737,0.472824 1.302246,0.912598 0.298496,0.439783 0.447747,0.983239 0.447754,1.630371 -7e-6,0.91146 -0.31446,1.620119 -0.943359,2.125977 -0.628912,0.505859 -1.508469,0.758789 -2.638672,0.758789 -1.107425,0 -1.974449,-0.254069 -2.601074,-0.762207 -0.626629,-0.508137 -0.939942,-1.215656 -0.939941,-2.122559 -10e-7,-0.63346 0.14925,-1.170081 0.447753,-1.609863 0.298502,-0.439774 0.732583,-0.750809 1.302247,-0.933106 -1.025392,-0.414707 -1.538087,-1.198561 -1.538086,-2.351562 -10e-7,-0.829419 0.304198,-1.475414 0.912597,-1.937988 0.608396,-0.462555 1.436683,-0.693838 2.484864,-0.693848 1.029942,10e-6 1.841139,0.231293 2.433593,0.693848 0.592441,0.462574 0.888665,1.108569 0.888672,1.937988 -7e-6,1.166673 -0.519538,1.950526 -1.558594,2.351562 z m -1.818359,-3.698242 c -0.765628,9e-6 -1.14844,0.517261 -1.148437,1.551758 -3e-6,0.48308 0.09912,0.863613 0.297363,1.141602 0.198239,0.278 0.48193,0.416998 0.851074,0.416992 0.373693,6e-6 0.663081,-0.137852 0.868164,-0.413574 0.205073,-0.27571 0.307612,-0.657383 0.307617,-1.14502 -5e-6,-1.034497 -0.391932,-1.551749 -1.175781,-1.551758 z m 0,4.368164 c -0.414717,5e-6 -0.730309,0.144699 -0.946777,0.434082 -0.216475,0.289392 -0.32471,0.705245 -0.324707,1.247559 -3e-6,0.574221 0.107093,1.016278 0.321289,1.326172 0.214189,0.309897 0.530921,0.464845 0.950195,0.464844 0.856766,10e-7 1.285151,-0.597004 1.285156,-1.791016 -5e-6,-0.514971 -0.113937,-0.923987 -0.341797,-1.227051 -0.227869,-0.303055 -0.542322,-0.454585 -0.943359,-0.45459 z"/>
   <path style="line-height:125%;fill:#343434;font-family:Nokia Standard Multiscript;-inkscape-font-specification:Nokia Standard Multiscript Bold" id="path3210" d="m 55.660637,33.774811 -6.439453,0 0,-1.203125 2.15332,0 0,-7.334961 -2.15332,0.458008 0,-1.203125 3.185547,-0.991211 1.223632,0 0,9.071289 2.030274,0 z"/>
  </g>
  <g style="font-size:14px;font-style:normal;font-variant:normal;font-weight:bold;font-stretch:normal;text-align:start;line-height:125%;letter-spacing:0px;word-spacing:0px;writing-mode:lr-tb;text-anchor:start;fill:#343434;fill-opacity:1;stroke:none;font-family:Nokia Standard Multiscript;-inkscape-font-specification:Nokia Standard Multiscript Bold" id="text10533">
   <path style="" id="path3203" d="m 72.886017,34.835464 -6.439453,0 0,-1.203125 2.15332,0 0,-7.33496 -2.15332,0.458007 0,-1.203125 3.185547,-0.991211 1.223632,0 0,9.071289 2.030274,0 z"/>
   <path style="" id="path3205" d="m 77.753204,34.944839 c -0.66081,0 -1.21566,-0.115071 -1.66455,-0.345214 -0.448896,-0.230143 -0.808921,-0.568522 -1.080079,-1.015137 -0.27116,-0.446613 -0.458008,-0.990069 -0.560546,-1.630371 -0.10254,-0.640296 -0.15381,-1.420732 -0.153809,-2.341309 -10e-7,-1.836581 0.293944,-3.142244 0.881836,-3.916992 0.587888,-0.77473 1.465166,-1.162099 2.631836,-1.162109 0.720047,10e-6 1.329584,0.1504 1.828613,0.451172 0.499017,0.30079 0.886386,0.802092 1.16211,1.503906 0.275708,0.70183 0.413566,1.74317 0.413574,3.124023 -8e-6,0.879562 -0.049,1.645186 -0.146973,2.296875 -0.09799,0.651695 -0.283698,1.204266 -0.557129,1.657715 -0.273444,0.453451 -0.634609,0.796387 -1.083496,1.028809 -0.448899,0.232422 -1.006027,0.348632 -1.671387,0.348632 z m 0,-9.125976 c -0.282556,9e-6 -0.518395,0.11622 -0.707519,0.348633 -0.189131,0.23243 -0.314456,0.617521 -0.375977,1.155273 -0.06153,0.537768 -0.09229,1.301113 -0.09229,2.290039 -3e-6,1.718103 0.09114,2.822105 0.273438,3.312012 0.182288,0.48991 0.483069,0.734864 0.902343,0.734863 0.414709,10e-7 0.712072,-0.243813 0.89209,-0.731445 0.180008,-0.487628 0.270014,-1.59277 0.27002,-3.31543 -6e-6,-1.658847 -0.09571,-2.705884 -0.28711,-3.141113 -0.191411,-0.435213 -0.483077,-0.652823 -0.875,-0.652832 z"/>
  </g>
  <g style="font-size:14px;font-style:normal;font-variant:normal;font-weight:bold;font-stretch:normal;text-align:start;line-height:125%;letter-spacing:0px;word-spacing:0px;writing-mode:lr-tb;text-anchor:start;fill:#343434;fill-opacity:1;stroke:none;font-family:Nokia Standard Multiscript;-inkscape-font-specification:Nokia Standard Multiscript Bold" id="text10541">
   <path style="" id="path3198" d="m 13.550274,61.931084 0,-1.353516 c 0.874998,-0.223297 1.690752,-0.334951 2.447266,-0.334961 2.205723,1e-5 3.308586,0.843109 3.308593,2.529297 -7e-6,1.194017 -0.617519,1.982428 -1.852539,2.365234 0.642573,0.118495 1.139317,0.387375 1.490235,0.806641 0.350904,0.419275 0.52636,0.945642 0.526367,1.579102 -7e-6,1.052736 -0.307624,1.837729 -0.922852,2.35498 -0.61524,0.517253 -1.567713,0.775879 -2.857422,0.775879 -0.833987,0 -1.649741,-0.107096 -2.447265,-0.321289 l 0,-1.353516 c 0.952472,0.223309 1.66113,0.334962 2.125976,0.334961 0.601559,10e-7 1.050452,-0.138996 1.34668,-0.416992 0.296219,-0.277993 0.444331,-0.722328 0.444336,-1.333008 -5e-6,-0.660803 -0.205083,-1.11995 -0.615234,-1.377441 -0.41016,-0.257483 -1.212243,-0.386226 -2.40625,-0.386231 l 0,-1.291992 c 1.116533,6e-6 1.878739,-0.113926 2.286621,-0.341797 0.407873,-0.227858 0.611811,-0.64485 0.611816,-1.250976 -5e-6,-0.888664 -0.499028,-1.332999 -1.49707,-1.333008 -0.460289,9e-6 -1.123375,0.11622 -1.989258,0.348633 z"/>
   <path style="" id="path3200" d="m 26.524883,65.226006 c 0.569655,0.168624 1.003737,0.472823 1.302246,0.912597 0.298495,0.439783 0.447747,0.983239 0.447754,1.630371 -7e-6,0.911461 -0.31446,1.620119 -0.943359,2.125977 -0.628912,0.505859 -1.508469,0.758789 -2.638672,0.758789 -1.107425,0 -1.974449,-0.254069 -2.601074,-0.762207 -0.626629,-0.508137 -0.939942,-1.215656 -0.939942,-2.122559 0,-0.63346 0.149251,-1.17008 0.447754,-1.609863 0.298502,-0.439774 0.732583,-0.750809 1.302246,-0.933105 -1.025392,-0.414708 -1.538086,-1.198562 -1.538086,-2.351563 0,-0.829419 0.304199,-1.475414 0.912598,-1.937988 0.608396,-0.462555 1.436683,-0.693838 2.484863,-0.693848 1.029943,1e-5 1.84114,0.231293 2.433594,0.693848 0.592441,0.462574 0.888665,1.108569 0.888672,1.937988 -7e-6,1.166673 -0.519538,1.950527 -1.558594,2.351563 z m -1.818359,-3.698243 c -0.765628,9e-6 -1.148441,0.517261 -1.148438,1.551758 -3e-6,0.48308 0.09912,0.863614 0.297364,1.141602 0.198238,0.278001 0.48193,0.416998 0.851074,0.416992 0.373693,6e-6 0.663081,-0.137852 0.868164,-0.413574 0.205073,-0.27571 0.307612,-0.657383 0.307617,-1.14502 -5e-6,-1.034497 -0.391932,-1.551749 -1.175781,-1.551758 z m 0,4.368164 c -0.414717,5e-6 -0.730309,0.144699 -0.946777,0.434082 -0.216475,0.289392 -0.32471,0.705245 -0.324707,1.247559 -3e-6,0.574221 0.107093,1.016278 0.321289,1.326172 0.214189,0.309897 0.53092,0.464845 0.950195,0.464844 0.856766,10e-7 1.285151,-0.597004 1.285156,-1.791016 -5e-6,-0.51497 -0.113937,-0.923987 -0.341797,-1.227051 -0.227869,-0.303055 -0.542322,-0.454585 -0.943359,-0.45459 z"/>
  </g>
  <g style="font-size:14px;font-style:normal;font-variant:normal;font-weight:bold;font-stretch:normal;text-align:start;line-height:125%;letter-spacing:0px;word-spacing:0px;writing-mode:lr-tb;text-anchor:start;fill:#343434;fill-opacity:1;stroke:none;font-family:Nokia Standard Multiscript;-inkscape-font-specification:Nokia Standard Multiscript Bold" id="text10545">
   <path style="" id="path3193" d="m 75.007332,69.130157 -6.439453,0 0,-1.203125 2.15332,0 0,-7.33496 -2.15332,0.458007 0,-1.203125 3.185547,-0.991211 1.223632,0 0,9.071289 2.030274,0 z"/>
   <path style="" id="path3195" d="m 76.935066,60.516876 0,-1.353515 c 0.874998,-0.223298 1.690753,-0.334951 2.447266,-0.334961 2.205723,10e-6 3.308587,0.843108 3.308594,2.529297 -7e-6,1.194017 -0.61752,1.982427 -1.852539,2.365234 0.642572,0.118495 1.139316,0.387375 1.490234,0.806641 0.350904,0.419275 0.52636,0.945641 0.526367,1.579101 -7e-6,1.052736 -0.307624,1.837729 -0.922851,2.354981 -0.61524,0.517252 -1.567713,0.775878 -2.857422,0.775878 -0.833987,0 -1.649742,-0.107096 -2.447266,-0.321289 l 0,-1.353515 c 0.952472,0.223308 1.66113,0.334962 2.125977,0.334961 0.601559,1e-6 1.050451,-0.138996 1.346679,-0.416992 0.29622,-0.277993 0.444331,-0.722329 0.444336,-1.333008 -5e-6,-0.660804 -0.205082,-1.119951 -0.615234,-1.377442 -0.41016,-0.257482 -1.212243,-0.386225 -2.40625,-0.38623 l 0,-1.291992 c 1.116533,6e-6 1.87874,-0.113926 2.286621,-0.341797 0.407873,-0.227858 0.611812,-0.64485 0.611816,-1.250977 -4e-6,-0.888663 -0.499027,-1.332999 -1.49707,-1.333008 -0.460289,9e-6 -1.123374,0.11622 -1.989258,0.348633 z"/>
  </g>
  <g style="font-size:14px;font-style:normal;font-variant:normal;font-weight:bold;font-stretch:normal;text-align:start;line-height:125%;letter-spacing:0px;word-spacing:0px;writing-mode:lr-tb;text-anchor:start;fill:#343434;fill-opacity:1;stroke:none;font-family:Nokia Standard Multiscript;-inkscape-font-specification:Nokia Standard Multiscript Bold" id="text12486">
   <path style="" id="path3188" d="m 45.232029,62.22506 c 0.09114,-0.02278 0.29622,-0.03417 0.615234,-0.03418 1.020829,6e-6 1.803543,0.27914 2.348145,0.837402 0.544589,0.558274 0.816887,1.354659 0.816894,2.38916 -7e-6,1.175784 -0.308763,2.045086 -0.926269,2.60791 -0.617519,0.562826 -1.568852,0.844239 -2.854004,0.844239 -0.852216,0 -1.649741,-0.09342 -2.392578,-0.280274 l 0,-1.367187 c 0.811196,0.205079 1.472003,0.307618 1.982422,0.307617 0.656246,10e-7 1.135901,-0.164061 1.438965,-0.492187 0.303055,-0.328123 0.454584,-0.845376 0.454589,-1.551758 -5e-6,-1.27148 -0.708663,-1.907222 -2.125976,-1.907227 -0.401044,5e-6 -0.877281,0.02279 -1.428711,0.06836 l 0,-5.079102 5.46875,0 0,1.34668 -3.397461,0 z"/>
   <path style="" id="path3190" d="m 57.270115,68.760216 -6.466797,0 0,-0.895508 c -10e-7,-0.733722 0.182291,-1.445798 0.546875,-2.136231 0.364582,-0.690425 1.064125,-1.466304 2.098633,-2.327636 0.546871,-0.460281 0.921708,-0.839675 1.124512,-1.138184 0.202794,-0.298496 0.304194,-0.634596 0.304199,-1.008301 -5e-6,-0.970694 -0.524093,-1.456045 -1.572266,-1.456054 -0.587893,9e-6 -1.305666,0.154956 -2.15332,0.464843 l 0,-1.387695 c 0.934243,-0.277984 1.843421,-0.416982 2.727539,-0.416992 1.08463,1e-5 1.906081,0.229014 2.464355,0.687012 0.558262,0.458017 0.837396,1.133634 0.837403,2.026855 -7e-6,0.53321 -0.116218,1.033373 -0.348633,1.500488 -0.232429,0.467128 -0.790696,1.072108 -1.674805,1.814942 -0.587895,0.492191 -1.01628,0.878421 -1.285156,1.158691 -0.268884,0.280276 -0.479658,0.565107 -0.632324,0.854492 -0.152673,0.28939 -0.242679,0.589032 -0.27002,0.898926 l 4.299805,0 z"/>
  </g>
  <g style="font-size:14px;font-style:normal;font-variant:normal;font-weight:bold;font-stretch:normal;text-align:start;line-height:125%;letter-spacing:0px;word-spacing:0px;writing-mode:lr-tb;text-anchor:start;fill:#343434;fill-opacity:1;stroke:none;font-family:Nokia Standard Multiscript;-inkscape-font-specification:Nokia Standard Multiscript Bold" id="text12998">
   <path style="" id="path3181" d="m 44.871281,83.919266 -6.439453,0 0,-1.203125 2.15332,0 0,-7.334961 -2.15332,0.458008 0,-1.203125 3.185546,-0.991211 1.223633,0 0,9.071289 2.030274,0 z"/>
   <path style="" id="path3183" d="m 49.738468,84.028641 c -0.660811,0 -1.21566,-0.115072 -1.664551,-0.345215 -0.448895,-0.230143 -0.808921,-0.568521 -1.080078,-1.015137 -0.27116,-0.446613 -0.458008,-0.990069 -0.560547,-1.630371 -0.102539,-0.640296 -0.153809,-1.420731 -0.153808,-2.341309 -10e-7,-1.836581 0.293944,-3.142244 0.881836,-3.916992 0.587888,-0.774729 1.465166,-1.162099 2.631836,-1.162109 0.720047,1e-5 1.329584,0.150401 1.828613,0.451172 0.499017,0.300791 0.886386,0.802092 1.162109,1.503906 0.275709,0.701831 0.413567,1.743171 0.413575,3.124023 -8e-6,0.879562 -0.049,1.645186 -0.146973,2.296875 -0.09799,0.651695 -0.283699,1.204267 -0.557129,1.657715 -0.273444,0.453452 -0.634609,0.796388 -1.083496,1.028809 -0.448899,0.232422 -1.006027,0.348633 -1.671387,0.348633 z m 0,-9.125977 c -0.282556,9e-6 -0.518395,0.11622 -0.707519,0.348633 -0.189131,0.23243 -0.314457,0.617521 -0.375977,1.155273 -0.06153,0.537768 -0.09229,1.301113 -0.09229,2.290039 -3e-6,1.718103 0.09114,2.822106 0.273437,3.312012 0.182289,0.48991 0.48307,0.734865 0.902344,0.734863 0.414709,2e-6 0.712072,-0.243813 0.89209,-0.731445 0.180008,-0.487628 0.270014,-1.59277 0.27002,-3.31543 -6e-6,-1.658847 -0.09571,-2.705884 -0.28711,-3.141113 -0.191411,-0.435212 -0.483077,-0.652823 -0.875,-0.652832 z"/>
   <path style="" id="path3185" d="m 57.968937,84.028641 c -0.660811,0 -1.215661,-0.115072 -1.664551,-0.345215 -0.448895,-0.230143 -0.808921,-0.568521 -1.080078,-1.015137 -0.27116,-0.446613 -0.458009,-0.990069 -0.560547,-1.630371 -0.10254,-0.640296 -0.153809,-1.420731 -0.153808,-2.341309 -1e-6,-1.836581 0.293944,-3.142244 0.881835,-3.916992 0.587889,-0.774729 1.465167,-1.162099 2.631836,-1.162109 0.720048,1e-5 1.329585,0.150401 1.828614,0.451172 0.499017,0.300791 0.886386,0.802092 1.162109,1.503906 0.275709,0.701831 0.413567,1.743171 0.413574,3.124023 -7e-6,0.879562 -0.049,1.645186 -0.146972,2.296875 -0.09799,0.651695 -0.283699,1.204267 -0.557129,1.657715 -0.273444,0.453452 -0.634609,0.796388 -1.083496,1.028809 -0.448899,0.232422 -1.006027,0.348633 -1.671387,0.348633 z m 0,-9.125977 c -0.282556,9e-6 -0.518396,0.11622 -0.70752,0.348633 -0.18913,0.23243 -0.314456,0.617521 -0.375976,1.155273 -0.06153,0.537768 -0.09229,1.301113 -0.09228,2.290039 -3e-6,1.718103 0.09114,2.822106 0.273437,3.312012 0.182288,0.48991 0.483069,0.734865 0.902344,0.734863 0.414709,2e-6 0.712072,-0.243813 0.89209,-0.731445 0.180008,-0.487628 0.270014,-1.59277 0.270019,-3.31543 -5e-6,-1.658847 -0.09571,-2.705884 -0.287109,-3.141113 -0.191411,-0.435212 -0.483078,-0.652823 -0.875,-0.652832 z"/>
  </g>
 </g>
</svg>
